<svg xmlns="http://www.w3.org/2000/svg" enable-background="new 0 0 66 66" viewBox="0 0 66 66" id="Rocket"><path d="M16 43.2c-.4-.4-.7-1-.8-1.6-2.1 1.6-3.4 3.4-8.3 3.8-.3 0-.4 0-.4 0-.5.1-.9.6-.9 1.1 0 .5.5 1 1.1.9l.4 0c.1 0 .2 0 .3 0 1.2 0 1.9.3 2 .6.1.1.4 1.3-3.1 4.8C2.3 56.5 2 62.5 2 62.7c0 .3.1.5.3.7s.5.3.7.3h0c9.9-.4 12-7.1 14.9-7.1 1 0 .7 2.5.7 2.7-.1 1.3 1.9 1.5 2 .2 0 0 0-.2 0-.4.3-3.6 1.6-5.3 2.9-7.1.3-.4.6-.8.8-1.2-.6-.1-1.2-.4-1.6-.8L16 43.2zM15.8 37.9c1.6-5.7 4.1-12.5 7.9-18.7-3.2 1.7-7.6 2.5-10.2-.1-.2-.2-.5-.3-.9-.3s-.6.2-.7.5L1.1 40c-.2.3-.2.8.1 1.1.3.3.7.4 1 .3L15.8 37.9zM46.7 42.3c-6.2 3.8-12.9 6.3-18.7 7.9l-3.5 13.6c-.1.4 0 .8.3 1 .2.2.4.2.6.2.2 0 .3 0 .5-.1l20.6-10.8c.3-.1.5-.4.5-.7 0-.3-.1-.6-.3-.8C44.3 50 45 45.5 46.7 42.3zM37.8 16c-2.1 2.1-2.7 4.8-1.5 6.1 1.5 1.5 4.5.1 6.1-1.5 1.5-1.5 3-4.6 1.5-6.1C42.4 13 39.4 14.4 37.8 16zM63.4 2.7C62.4 1.6 61 1 59.5 1c0 0-.1 0-.1 0-3.1.1-7.7.5-12.6 2.1 1.4 4.1 12 14.7 16.2 16.1 1.6-4.9 2-9.5 2.1-12.6C65 5.1 64.5 3.7 63.4 2.7zM17.4 41.8l6.9 6.9c.2.2.4.3.7.3.1 0 .2 0 .3 0 5.2-1.3 11.5-3.4 17.5-6.6-4.7-.8-10.3-4.7-14.1-8.6-3-3.1-4.9-6.2-5.7-9-2.8 5.6-4.7 11.4-5.9 16.1C17 41.1 17.1 41.5 17.4 41.8z" fill="#6fbcff" class="color000000 svgShape"></path><path d="M44.9,3.7c-9.1,3.4-15.3,9.4-20.2,17.8c-0.4,2.7,1.6,6.7,5.4,10.7c5.3,5.6,11.9,8.9,15.7,8c0.1,0,0.2,0,0.3,0
    c7.5-4.7,12.9-10.7,16.1-19.2C57.5,19.6,46.4,8.5,44.9,3.7z M43.8,22c-2.5,2.5-6.6,3.8-8.9,1.5c-2.1-2.1-1.4-6,1.5-8.9
    c2.5-2.5,6.6-3.9,8.9-1.5C47.7,15.5,46.2,19.6,43.8,22z" fill="#6fbcff" class="color000000 svgShape"></path></svg>