<svg width="498" height="498" viewBox="0 0 498 498" fill="none" xmlns="http://www.w3.org/2000/svg">
<path d="M177.857 106.714H320.143V71.143H177.857V106.714ZM498 284.572V417.964C498 430.192 493.646 440.66 484.939 449.367C476.231 458.075 465.763 462.429 453.536 462.429H44.4643C32.2366 462.429 21.769 458.075 13.0614 449.367C4.35379 440.66 0 430.192 0 417.964V284.572H186.75V329.036C186.75 333.853 188.51 338.021 192.03 341.541C195.55 345.062 199.719 346.822 204.536 346.822H293.464C298.281 346.822 302.45 345.062 305.97 341.541C309.49 338.021 311.25 333.853 311.25 329.036V284.572H498ZM284.571 284.572V320.143H213.429V284.572H284.571ZM498 151.179V257.893H0V151.179C0 138.951 4.35379 128.483 13.0614 119.776C21.769 111.068 32.2366 106.714 44.4643 106.714H142.286V62.2501C142.286 54.8394 144.879 48.5403 150.067 43.3528C155.254 38.1653 161.554 35.5715 168.964 35.5715H329.036C336.446 35.5715 342.746 38.1653 347.933 43.3528C353.121 48.5403 355.714 54.8394 355.714 62.2501V106.714H453.536C465.763 106.714 476.231 111.068 484.939 119.776C493.646 128.483 498 138.951 498 151.179Z" fill="#75aadb"/>
</svg>
