<svg width="104" height="104" viewBox="0 0 104 104" fill="none" xmlns="http://www.w3.org/2000/svg">
<path d="M39.9751 42.5098C43.2576 45.1748 47.4501 46.7675 52.0001 46.7675C56.5502 46.7675 60.7426 45.1748 64.0252 42.5423C67.0802 46.2799 71.6951 48.7174 76.8627 48.7174C85.9627 48.7174 93.3726 41.3073 93.3726 32.2073C93.3726 23.1073 85.9627 15.6973 76.8627 15.6973C73.9376 15.6973 71.1101 16.5098 68.6726 17.9074C65.3251 12.1549 59.1176 8.25488 52.0001 8.25488C44.8826 8.25488 38.6752 12.1549 35.3276 17.9075C32.8901 16.5098 30.0626 15.6973 27.1376 15.6973C18.0376 15.6973 10.6277 23.1074 10.6277 32.2074C10.6277 41.3073 18.0376 48.7174 27.1376 48.7174C32.3051 48.7174 36.9201 46.2799 39.9751 42.5098ZM52.0001 18.0049C57.2326 18.0049 61.4901 22.2624 61.4901 27.5273C61.4901 32.7598 57.2326 37.0175 52.0001 37.0175C46.7677 37.0175 42.5102 32.7598 42.5102 27.5273C42.5102 22.2624 46.7677 18.0049 52.0001 18.0049Z" fill="#75aadb"/>
<path d="M6.5 88.3025H21.6126V90.8699C21.6126 93.5675 23.79 95.7449 26.4876 95.7449H77.5124C80.21 95.7449 82.3874 93.5675 82.3874 90.8699V88.3025H97.5C100.198 88.3025 102.375 86.1251 102.375 83.4275V74.2299C102.375 67.405 99.71 61.0024 94.9 56.1925C90.0899 51.3826 83.6875 48.7175 76.8626 48.7175C72.5075 48.7175 68.3476 49.855 64.6425 51.9025C60.775 50.115 56.5175 49.1075 52 49.1075C47.4825 49.1075 43.225 50.115 39.3575 51.9025C35.6524 49.855 31.4925 48.7175 27.1374 48.7175C13.0651 48.7175 1.625 60.1576 1.625 74.23V83.4275C1.625 86.1251 3.80243 88.3025 6.5 88.3025ZM31.3626 79.4949C31.3626 68.1199 40.625 58.8575 52 58.8575C63.375 58.8575 72.6374 68.1199 72.6374 79.4949V85.9949H31.3626V79.4949Z" fill="#75aadb"/>
</svg>
