<svg width="222" height="222" viewBox="0 0 222 222" fill="none" xmlns="http://www.w3.org/2000/svg">
<path d="M96.372 135.319C92.0373 122.103 88.8808 108.463 90.3177 100.124C90.3177 100.03 90.3411 99.9589 90.365 99.8648C90.5536 98.8285 89.4462 97.9566 88.4333 98.3811C86.2424 99.3233 84.2166 100.619 82.4024 102.174C75.618 107.969 71.6836 117.345 71.5188 126.132C71.4715 127.475 72.791 128.417 74.3693 128.299L86.8312 127.451L79.0807 135.319H96.372V135.319Z" fill="#75aadb"/>
<path d="M74.7694 132.987C69.973 132.2 66.6808 130.851 66.8069 125.99C66.9483 118.263 69.634 110.513 74.0393 104.388C62.2134 107.474 52.0834 109.453 51.2357 109.453C40.4228 113.623 35.6641 122.457 35.6641 130.937V135.319H72.4376C73.4032 134.306 74.3692 133.552 74.7694 132.987ZM120.636 135.319C124.217 124.718 126.973 113.976 127.303 106.201C118.327 115.366 103.675 115.389 94.6992 106.201C95.0053 113.976 97.785 124.741 101.342 135.319H120.636ZM155.195 126.037C155.324 130.861 151.975 132.212 147.233 132.987C147.634 133.575 148.576 134.329 149.541 135.319H186.338V130.914C186.338 121.137 180.095 112.563 170.814 109.453C170.625 109.406 158.187 106.32 147.421 103.634C152.18 109.876 155.054 117.91 155.195 126.037Z" fill="#75aadb"/>
<path d="M150.484 126.132C150.319 117.132 146.196 107.474 139.082 101.725C137.386 100.383 135.572 99.2284 133.57 98.3803C132.557 97.9558 131.449 98.8277 131.638 99.864C131.661 99.9585 131.685 100.053 131.709 100.171C133.099 108.51 129.942 122.126 125.607 135.319H142.922L135.171 127.45L147.633 128.299C149.211 128.417 150.531 127.474 150.484 126.132ZM80.541 66.61C81.0279 67.9602 78.4064 77.4078 94.9818 95.1387C103.631 104.376 118.432 104.362 127.067 95.1387C143.69 77.3579 141.035 67.9832 141.532 66.61C146.805 66.61 149.565 60.2765 145.866 56.4092C148.976 49.5307 150.743 42.0868 150.743 34.9481C150.743 12.3804 132.957 1.75562 111.001 1.75562C89.0923 1.75562 71.3063 12.38 71.3063 34.9481C71.3063 42.0868 73.0732 49.5307 76.1825 56.4092C72.4822 60.2786 75.2511 66.61 80.541 66.61ZM196.481 140.031H25.5192C21.0099 140.031 17.8611 144.498 19.377 148.745L43.3482 215.914C44.2748 218.511 46.7337 220.244 49.4905 220.244H172.51C175.266 220.244 177.725 218.51 178.652 215.914L202.623 148.745C204.139 144.498 200.99 140.031 196.481 140.031ZM111.001 192.085C102.879 192.085 96.2895 188.158 96.2895 183.293C96.2895 178.427 102.879 174.482 111.001 174.482C119.123 174.482 125.712 178.427 125.712 183.293C125.712 188.158 119.123 192.085 111.001 192.085Z" fill="#75aadb"/>
</svg>
